<svg width="18" height="18" viewBox="0 0 18 18" fill="none" xmlns="http://www.w3.org/2000/svg">
<path fill-rule="evenodd" clip-rule="evenodd" d="M9.00034 -0.000976562C6.55593 -0.000976562 6.24917 0.00971174 5.28911 0.0534019C4.33092 0.0972795 3.67688 0.248977 3.10459 0.471553C2.51262 0.701443 2.01046 1.00896 1.51018 1.50943C1.00952 2.00971 0.702005 2.51187 0.471366 3.10366C0.248226 3.67613 0.0963421 4.33036 0.0532141 5.28817C0.0102739 6.24823 -0.000976562 6.55518 -0.000976562 8.99959C-0.000976562 11.444 0.00989914 11.7498 0.0534019 12.7099C0.0974669 13.6681 0.249164 14.3221 0.471553 14.8944C0.70163 15.4864 1.00915 15.9885 1.50962 16.4888C2.00971 16.9895 2.51187 17.2977 3.10347 17.5276C3.67613 17.7502 4.33036 17.9019 5.28835 17.9458C6.24841 17.9895 6.555 18.0001 8.99921 18.0001C11.4438 18.0001 11.7496 17.9895 12.7097 17.9458C13.6679 17.9019 14.3227 17.7502 14.8953 17.5276C15.4871 17.2977 15.9885 16.9895 16.4886 16.4888C16.9893 15.9885 17.2968 15.4864 17.5274 14.8946C17.7487 14.3221 17.9006 13.6679 17.9456 12.7101C17.9887 11.75 18 11.444 18 8.99959C18 6.55518 17.9887 6.24841 17.9456 5.28835C17.9006 4.33017 17.7487 3.67613 17.5274 3.10384C17.2968 2.51187 16.9893 2.00971 16.4886 1.50943C15.988 1.00877 15.4873 0.701255 14.8948 0.471553C14.321 0.248977 13.6666 0.0972795 12.7084 0.0534019C11.7483 0.00971174 11.4427 -0.000976562 8.99753 -0.000976562H9.00034ZM8.19291 1.621C8.34969 1.62075 8.51835 1.62083 8.70036 1.62091L9.00034 1.621C11.4035 1.621 11.6883 1.62963 12.6373 1.67275C13.5149 1.71288 13.9911 1.85952 14.3084 1.98271C14.7284 2.14585 15.0279 2.34086 15.3427 2.65588C15.6578 2.9709 15.8528 3.27092 16.0163 3.69094C16.1395 4.00784 16.2863 4.48412 16.3262 5.36167C16.3694 6.31048 16.3787 6.5955 16.3787 8.99752C16.3787 11.3995 16.3694 11.6846 16.3262 12.6334C16.2861 13.5109 16.1395 13.9872 16.0163 14.3041C15.8531 14.7241 15.6578 15.0232 15.3427 15.338C15.0277 15.6531 14.7286 15.8481 14.3084 16.0112C13.9915 16.135 13.5149 16.2812 12.6373 16.3214C11.6885 16.3645 11.4035 16.3739 9.00034 16.3739C6.597 16.3739 6.31217 16.3645 5.36336 16.3214C4.4858 16.2809 4.00953 16.1342 3.69207 16.011C3.27204 15.8479 2.97202 15.6529 2.657 15.3379C2.34198 15.0228 2.14697 14.7236 1.98346 14.3034C1.86027 13.9865 1.71344 13.5102 1.6735 12.6326C1.63038 11.6838 1.62175 11.3988 1.62175 8.99527C1.62175 6.59175 1.63038 6.30823 1.6735 5.35942C1.71363 4.48187 1.86027 4.00559 1.98346 3.68832C2.1466 3.26829 2.34198 2.96827 2.657 2.65325C2.97202 2.33823 3.27204 2.14322 3.69207 1.97971C4.00934 1.85595 4.4858 1.70969 5.36336 1.66938C6.19366 1.63188 6.51543 1.62063 8.19291 1.61875V1.621ZM13.8048 3.11547C13.2085 3.11547 12.7247 3.59869 12.7247 4.19516C12.7247 4.79145 13.2085 5.27523 13.8048 5.27523C14.4011 5.27523 14.8848 4.79145 14.8848 4.19516C14.8848 3.59887 14.4011 3.11509 13.8048 3.11509V3.11547ZM4.37817 8.99959C4.37817 6.44705 6.44764 4.37752 9.00015 4.37742C11.5527 4.37742 13.6218 6.44699 13.6218 8.99959C13.6218 11.5522 11.5529 13.6208 9.00034 13.6208C6.44774 13.6208 4.37817 11.5522 4.37817 8.99959ZM12.0005 8.99959C12.0005 7.34255 10.6572 5.9994 9.00034 5.9994C7.3433 5.9994 6.00015 7.34255 6.00015 8.99959C6.00015 10.6564 7.3433 11.9998 9.00034 11.9998C10.6572 11.9998 12.0005 10.6564 12.0005 8.99959Z" fill="#0C4E8A"/>
</svg>
