<svg width="20" height="20" viewBox="0 0 20 20" fill="none" xmlns="http://www.w3.org/2000/svg">
<path fill-rule="evenodd" clip-rule="evenodd" d="M1.99857 2.08682C2.64971 1.46385 3.68483 0.945646 5.04865 1.00458C5.6991 1.03254 6.2751 1.39367 6.61667 1.92664C6.88059 2.3385 7.29027 2.97789 7.82394 3.81243C8.4361 4.76923 8.4855 5.98941 7.95318 6.99241L7.62468 7.75722L7.58431 7.81452C7.45029 8.0054 7.42546 8.2418 7.51529 8.45657C7.76687 9.05819 8.26118 9.99559 9.13279 10.8672C10.0044 11.7388 10.9418 12.2331 11.5434 12.4847C11.7582 12.5745 11.9946 12.5497 12.1855 12.4157L12.2428 12.3753L13.0076 12.0468C14.0108 11.5144 15.231 11.5649 16.1876 12.1761C17.0221 12.7097 17.6615 13.1194 18.0734 13.3833C18.6063 13.7249 18.9675 14.3009 18.9954 14.9513C19.0543 16.3152 18.5361 17.3503 17.9132 18.0014C17.6017 18.327 17.2684 18.5621 16.9573 18.7229C16.6461 18.8838 16.3896 18.986 16.056 18.986C16.0856 18.986 15.9285 18.9933 15.7474 18.9977C15.5662 19.0021 15.3235 19.0014 15.0285 18.9847C14.4385 18.9513 13.6408 18.8515 12.6947 18.5862C10.8026 18.0556 8.32087 16.8613 5.72978 14.2702C3.13869 11.6791 1.94427 9.19727 1.41382 7.3053C1.14859 6.35932 1.04862 5.5614 1.0153 4.97151C0.998679 4.67656 0.997878 4.43243 1.00228 4.25131C1.00667 4.0702 1.014 3.91425 1.014 3.94396C1.014 3.61039 1.1162 3.35388 1.27707 3.04274C1.43794 2.7316 1.673 2.39831 1.99857 2.08682ZM5.49405 2.64553C5.37153 2.45435 5.1784 2.34491 4.99135 2.33687C3.9787 2.29312 3.3447 2.64483 2.92063 3.05056C2.70859 3.25342 2.55471 3.47341 2.4609 3.65484C2.40376 3.76535 2.3742 3.87293 2.35981 3.92527C2.35058 3.95886 2.3476 3.9697 2.3476 3.94396C2.3476 4.01211 2.34512 4.06226 2.34228 4.11976C2.34002 4.16554 2.33753 4.21598 2.33588 4.28387C2.33216 4.43706 2.33198 4.64247 2.34629 4.89597C2.37493 5.40299 2.46164 6.10307 2.69793 6.94586C3.17051 8.63143 4.23677 10.8914 6.67267 13.3273C9.10857 15.7632 11.3684 16.8293 13.0541 17.3021C13.897 17.5384 14.5969 17.625 15.104 17.6537C15.3576 17.6681 15.5629 17.6679 15.7161 17.6641C15.7842 17.6625 15.8348 17.66 15.8807 17.6577C15.938 17.6549 15.9881 17.6524 16.056 17.6524C16.0303 17.6524 16.0411 17.6494 16.0747 17.6402C16.1271 17.6258 16.2346 17.5962 16.3452 17.5391C16.5266 17.4453 16.7466 17.2914 16.9494 17.0794C17.3552 16.6553 17.7069 16.0213 17.6631 15.0086C17.6551 14.8216 17.5457 14.6285 17.3545 14.5059C16.9422 14.2418 16.3025 13.8319 15.4687 13.2987V13.3C14.9153 12.9464 14.1884 12.9201 13.6115 13.2362L13.5829 13.2518L12.8937 13.5468C12.9135 13.5339 12.9332 13.5207 12.9526 13.507L12.8314 13.5735L12.8937 13.5468C12.341 13.9062 11.6405 13.9712 11.029 13.7154C10.3104 13.4149 9.22 12.8402 8.1899 11.8101C7.1598 10.78 6.5851 9.68964 6.28457 8.971C6.02882 8.3595 6.0938 7.659 6.4532 7.10625L6.42653 7.16856L6.49295 7.04744C6.47932 7.06685 6.46607 7.08645 6.4532 7.10625L6.74821 6.41711L6.76383 6.38846C7.08005 5.81131 7.05518 5.08441 6.70132 4.53132C6.16812 3.69752 5.75824 3.05782 5.49405 2.64553Z" fill="#0C4E8A"/>
<path d="M5.04865 1.00458L5.04433 1.10448L5.04436 1.10449L5.04865 1.00458ZM1.99857 2.08682L2.0677 2.15908L1.99857 2.08682ZM6.61667 1.92664L6.70087 1.87268L6.70086 1.87268L6.61667 1.92664ZM7.82394 3.81243L7.73969 3.8663L7.73971 3.86632L7.82394 3.81243ZM7.95318 6.99241L7.86455 6.94537L7.8613 6.95294L7.95318 6.99241ZM7.62468 7.75722L7.70643 7.81481L7.71244 7.80627L7.71656 7.79668L7.62468 7.75722ZM7.58431 7.81452L7.50256 7.75692L7.50247 7.75705L7.58431 7.81452ZM7.51529 8.45657L7.60754 8.41799L7.60754 8.41799L7.51529 8.45657ZM9.13279 10.8672L9.06208 10.9379L9.13279 10.8672ZM11.5434 12.4847L11.582 12.3925L11.582 12.3925L11.5434 12.4847ZM12.1855 12.4157L12.2429 12.4975L12.2431 12.4974L12.1855 12.4157ZM12.2428 12.3753L12.2033 12.2834L12.1937 12.2876L12.1852 12.2936L12.2428 12.3753ZM13.0076 12.0468L13.0472 12.139L13.0545 12.1351L13.0076 12.0468ZM16.1876 12.1761L16.2414 12.0918L16.2414 12.0918L16.1876 12.1761ZM18.0734 13.3833L18.1273 13.2991L18.1273 13.2991L18.0734 13.3833ZM18.9954 14.9513L18.8955 14.9556V14.9557L18.9954 14.9513ZM17.9132 18.0014L17.9854 18.0706L17.9132 18.0014ZM15.7474 18.9977L15.7498 19.0977L15.7498 19.0977L15.7474 18.9977ZM15.0285 18.9847L15.0228 19.0845H15.0228L15.0285 18.9847ZM5.72978 14.2702L5.65906 14.3409L5.72978 14.2702ZM1.41382 7.3053L1.31753 7.3323L1.41382 7.3053ZM1.0153 4.97151L0.915461 4.97714L0.915461 4.97715L1.0153 4.97151ZM1.00228 4.25131L1.10225 4.25374L1.10225 4.25374L1.00228 4.25131ZM1.27707 3.04274L1.3659 3.08867L1.27707 3.04274ZM4.99135 2.33687L4.98703 2.43678L4.98705 2.43678L4.99135 2.33687ZM5.49405 2.64553L5.57825 2.59158L5.57825 2.59157L5.49405 2.64553ZM2.92063 3.05056L2.98976 3.12281L2.98976 3.12281L2.92063 3.05056ZM2.4609 3.65484L2.37207 3.60891L2.37207 3.60892L2.4609 3.65484ZM2.35981 3.92527L2.45623 3.95177V3.95177L2.35981 3.92527ZM2.34228 4.11976L2.44216 4.12469L2.34228 4.11976ZM2.33588 4.28387L2.23591 4.28144L2.23591 4.28145L2.33588 4.28387ZM2.34629 4.89597L2.24645 4.90161V4.90161L2.34629 4.89597ZM2.69793 6.94586L2.79421 6.91886V6.91886L2.69793 6.94586ZM6.67267 13.3273L6.74338 13.2566L6.67267 13.3273ZM13.0541 17.3021L13.0811 17.2058L13.0541 17.3021ZM15.104 17.6537L15.1097 17.5539H15.1097L15.104 17.6537ZM15.7161 17.6641L15.7137 17.5641L15.7137 17.5642L15.7161 17.6641ZM15.8807 17.6577L15.8856 17.7576H15.8856L15.8807 17.6577ZM16.0747 17.6402L16.1012 17.7366H16.1012L16.0747 17.6402ZM16.3452 17.5391L16.2992 17.4503H16.2992L16.3452 17.5391ZM16.9494 17.0794L16.8772 17.0102L16.9494 17.0794ZM17.6631 15.0086L17.5632 15.0129V15.013L17.6631 15.0086ZM17.3545 14.5059L17.4084 14.4218L17.4084 14.4217L17.3545 14.5059ZM15.4687 13.2987L15.5226 13.2144L15.3687 13.116V13.2987H15.4687ZM15.4687 13.3L15.4148 13.3842L15.5687 13.4825V13.3H15.4687ZM13.6115 13.2362L13.6594 13.324L13.6596 13.3239L13.6115 13.2362ZM13.5829 13.2518L13.6224 13.3441L13.6308 13.3396L13.5829 13.2518ZM12.9526 13.507L13.01 13.5889L12.9045 13.4194L12.9526 13.507ZM12.8314 13.5735L12.7834 13.4858L12.8708 13.6654L12.8314 13.5735ZM11.029 13.7154L11.0676 13.6232L11.0676 13.6232L11.029 13.7154ZM8.1899 11.8101L8.26061 11.7394L8.1899 11.8101ZM6.28457 8.971L6.37683 8.93242L6.37683 8.93241L6.28457 8.971ZM6.42653 7.16856L6.3346 7.1292L6.51421 7.21664L6.42653 7.16856ZM6.49295 7.04744L6.58063 7.09552L6.41111 6.98998L6.49295 7.04744ZM6.74821 6.41711L6.66002 6.369L6.65628 6.37775L6.74821 6.41711ZM6.76383 6.38846L6.67614 6.3404L6.67605 6.34057L6.76383 6.38846ZM6.70132 4.53132L6.61708 4.58519L6.61709 4.58521L6.70132 4.53132ZM5.05297 0.904671C3.66002 0.844481 2.59885 1.37411 1.92944 2.01457L2.0677 2.15908C2.70057 1.55359 3.70964 1.04681 5.04433 1.10448L5.05297 0.904671ZM6.70086 1.87268C6.34316 1.31454 5.73849 0.934145 5.05295 0.90467L5.04436 1.10449C5.65971 1.13094 6.20704 1.4728 6.53248 1.98059L6.70086 1.87268ZM7.90819 3.75855C7.37449 2.92398 6.96479 2.28456 6.70087 1.87268L6.53247 1.98059C6.79638 2.39245 7.20604 3.03181 7.73969 3.8663L7.90819 3.75855ZM8.04151 7.03929C8.59074 6.00443 8.53978 4.74574 7.90818 3.75853L7.73971 3.86632C8.33241 4.79273 8.38025 5.9744 7.86485 6.94553L8.04151 7.03929ZM7.71656 7.79668L8.04506 7.03188L7.8613 6.95294L7.5328 7.71775L7.71656 7.79668ZM7.66606 7.87211L7.70643 7.81481L7.54293 7.69962L7.50256 7.75692L7.66606 7.87211ZM7.60754 8.41799C7.53087 8.23467 7.552 8.03456 7.66615 7.87198L7.50247 7.75705C7.34857 7.97623 7.32005 8.24893 7.42303 8.49516L7.60754 8.41799ZM9.2035 10.7965C8.3436 9.93659 7.85568 9.01136 7.60754 8.41799L7.42303 8.49515C7.67806 9.10502 8.17877 10.0546 9.06208 10.9379L9.2035 10.7965ZM11.582 12.3925C10.9886 12.1443 10.0634 11.6564 9.2035 10.7965L9.06208 10.9379C9.9454 11.8212 10.895 12.3219 11.5048 12.577L11.582 12.3925ZM12.128 12.3338C11.9654 12.448 11.7653 12.4691 11.582 12.3925L11.5048 12.577C11.7511 12.68 12.0238 12.6514 12.2429 12.4975L12.128 12.3338ZM12.1852 12.2936L12.1279 12.3339L12.2431 12.4974L12.3004 12.4571L12.1852 12.2936ZM12.9681 11.9549L12.2033 12.2834L12.2822 12.4672L13.0471 12.1387L12.9681 11.9549ZM16.2414 12.0918C15.2546 11.4613 13.9959 11.4091 12.9607 11.9585L13.0545 12.1351C14.0258 11.6197 15.2075 11.6686 16.1337 12.2603L16.2414 12.0918ZM18.1273 13.2991C17.7154 13.0352 17.076 12.6255 16.2414 12.0918L16.1337 12.2603C16.9682 12.794 17.6075 13.2036 18.0194 13.4675L18.1273 13.2991ZM19.0953 14.9471C19.0659 14.2615 18.6855 13.6568 18.1273 13.2991L18.0194 13.4675C18.5272 13.793 18.8691 14.3403 18.8955 14.9556L19.0953 14.9471ZM17.9854 18.0706C18.6259 17.4011 19.1555 16.34 19.0953 14.947L18.8955 14.9557C18.9532 16.2904 18.4464 17.2994 17.8409 17.9323L17.9854 18.0706ZM17.0032 18.8118C17.3236 18.6461 17.6659 18.4045 17.9854 18.0706L17.8409 17.9323C17.5374 18.2495 17.2132 18.478 16.9113 18.6341L17.0032 18.8118ZM16.056 19.086C16.4135 19.086 16.6871 18.9752 17.0032 18.8118L16.9113 18.6341C16.6051 18.7924 16.3657 18.886 16.056 18.886V19.086ZM15.7498 19.0977C15.841 19.0955 15.9261 19.0925 15.9848 19.0901C16.0141 19.0889 16.0372 19.0879 16.0514 19.0871C16.0572 19.0867 16.0648 19.0863 16.0701 19.0857C16.0711 19.0856 16.0728 19.0853 16.075 19.085C16.0755 19.0849 16.0823 19.0839 16.0903 19.0813C16.0927 19.0806 16.097 19.0791 16.102 19.0767C16.106 19.0749 16.1165 19.0697 16.1274 19.0597C16.1374 19.0505 16.1621 19.0234 16.1595 18.9801C16.1569 18.9377 16.13 18.914 16.1201 18.9065C16.1088 18.8979 16.0983 18.8938 16.0943 18.8923C16.0892 18.8904 16.0849 18.8893 16.0825 18.8888C16.0776 18.8876 16.0737 18.8871 16.072 18.8869C16.0662 18.8861 16.0611 18.8861 16.0607 18.886C16.059 18.886 16.0574 18.886 16.056 18.886V19.086C16.0604 19.086 16.0541 19.0862 16.0469 19.0853C16.0453 19.0851 16.0415 19.0846 16.0366 19.0834C16.0342 19.0829 16.03 19.0818 16.0249 19.0799C16.0209 19.0784 16.0105 19.0744 15.9992 19.0658C15.9892 19.0582 15.9624 19.0346 15.9598 18.9922C15.9572 18.9489 15.9819 18.9218 15.9919 18.9126C16.0027 18.9026 16.0132 18.8975 16.0172 18.8956C16.0222 18.8933 16.0264 18.8918 16.0289 18.891C16.0368 18.8885 16.0433 18.8875 16.0435 18.8875C16.0454 18.8872 16.0468 18.887 16.0473 18.887C16.049 18.8868 16.0478 18.8869 16.0401 18.8874C16.0275 18.8881 16.0056 18.8891 15.9767 18.8903C15.9189 18.8927 15.8349 18.8956 15.745 18.8977L15.7498 19.0977ZM15.0228 19.0845C15.3207 19.1014 15.5662 19.1021 15.7498 19.0977L15.745 18.8977C15.5663 18.9021 15.3262 18.9014 15.0341 18.8849L15.0228 19.0845ZM12.6677 18.6825C13.6216 18.95 14.4267 19.0508 15.0228 19.0845L15.0341 18.8849C14.4504 18.8518 13.6599 18.753 12.7217 18.4899L12.6677 18.6825ZM5.65906 14.3409C8.26242 16.9443 10.7592 18.1473 12.6677 18.6825L12.7217 18.4899C10.8459 17.9639 8.37931 16.7783 5.80049 14.1995L5.65906 14.3409ZM1.31753 7.3323C1.85257 9.24062 3.05571 11.7376 5.65906 14.3409L5.80049 14.1995C3.22166 11.6207 2.03597 9.15393 1.51011 7.27831L1.31753 7.3323ZM0.915461 4.97715C0.949128 5.57329 1.05011 6.37847 1.31753 7.3323L1.51011 7.27831C1.24708 6.34017 1.1481 5.54951 1.11514 4.96587L0.915461 4.97715ZM0.902308 4.24888C0.897848 4.43245 0.898674 4.67929 0.915461 4.97714L1.11514 4.96588C1.09868 4.67384 1.09791 4.4324 1.10225 4.25374L0.902308 4.24888ZM1.114 3.94396C1.114 3.94263 1.11399 3.94098 1.11395 3.93926C1.11394 3.93883 1.11386 3.93397 1.11317 3.92834C1.11297 3.9267 1.1125 3.92311 1.1115 3.91864C1.11132 3.91784 1.10839 3.9024 1.09796 3.88621C1.09322 3.87884 1.0764 3.85442 1.04195 3.84434C0.999353 3.83187 0.965235 3.85028 0.948796 3.86436C0.934644 3.87648 0.927579 3.88948 0.925258 3.89391C0.922168 3.89981 0.920313 3.90479 0.919368 3.90751C0.916254 3.91646 0.915131 3.9241 0.915081 3.92441C0.914708 3.92667 0.914478 3.92853 0.914362 3.92952C0.913725 3.93493 0.913269 3.94266 0.912948 3.9483C0.912147 3.96237 0.911068 3.98536 0.909872 4.01447C0.907469 4.07291 0.90452 4.15774 0.902308 4.24889L1.10225 4.25374C1.10443 4.16378 1.10734 4.08007 1.1097 4.02269C1.11089 3.99388 1.11191 3.97214 1.11262 3.95967C1.11306 3.95203 1.11321 3.95103 1.11299 3.9529C1.11293 3.95344 1.11275 3.95494 1.11242 3.95692C1.11242 3.95695 1.11134 3.96439 1.10826 3.97323C1.10733 3.97591 1.10548 3.98088 1.1024 3.98675C1.10009 3.99116 1.09303 4.00415 1.07889 4.01627C1.06246 4.03034 1.02835 4.04875 0.985768 4.03628C0.951319 4.0262 0.934512 4.00179 0.929778 3.99444C0.919372 3.97827 0.916452 3.96287 0.916288 3.96214C0.915308 3.95774 0.91485 3.95424 0.914662 3.95272C0.913803 3.94572 0.914 3.93983 0.914 3.94396H1.114ZM1.18824 2.99681C1.02484 3.31286 0.914 3.58649 0.914 3.94396H1.114C1.114 3.6343 1.20757 3.3949 1.3659 3.08867L1.18824 2.99681ZM1.92944 2.01457C1.59551 2.33405 1.35393 2.67636 1.18824 2.99681L1.3659 3.08867C1.52195 2.78685 1.75049 2.46257 2.0677 2.15908L1.92944 2.01457ZM4.98705 2.43678C5.13876 2.4433 5.30332 2.53325 5.40986 2.69949L5.57825 2.59157C5.43973 2.37544 5.21804 2.24653 4.99564 2.23697L4.98705 2.43678ZM2.98976 3.12281C3.39575 2.73438 4.00377 2.39429 4.98703 2.43678L4.99567 2.23697C3.95363 2.19194 3.29364 2.55528 2.8515 2.9783L2.98976 3.12281ZM2.54973 3.70077C2.63862 3.52884 2.78593 3.31782 2.98976 3.12281L2.8515 2.9783C2.63125 3.18902 2.4708 3.41797 2.37207 3.60891L2.54973 3.70077ZM2.45623 3.95177C2.47046 3.90001 2.49778 3.80124 2.54973 3.70077L2.37207 3.60892C2.30974 3.72946 2.27793 3.84584 2.26339 3.89877L2.45623 3.95177ZM2.2476 3.94396C2.2476 3.9481 2.24741 3.9628 2.25022 3.97659C2.25097 3.98028 2.25329 3.99123 2.25971 4.00366C2.2639 4.01179 2.28647 4.05285 2.3398 4.05779C2.39007 4.06245 2.41943 4.02981 2.42417 4.02451C2.43271 4.01494 2.43749 4.00586 2.43916 4.00261C2.44525 3.99078 2.449 3.9774 2.4499 3.97433C2.45182 3.96786 2.45403 3.9598 2.45623 3.95177L2.26339 3.89877C2.26098 3.90753 2.25935 3.91343 2.25811 3.91764C2.25586 3.92524 2.25713 3.91926 2.26132 3.91112C2.26251 3.9088 2.26686 3.9004 2.275 3.89128C2.27933 3.88644 2.30832 3.85402 2.35825 3.85864C2.41124 3.86355 2.43351 3.90433 2.43743 3.91194C2.44358 3.92384 2.44565 3.93401 2.44619 3.93666C2.44816 3.94629 2.4476 3.9527 2.4476 3.94396H2.2476ZM2.44216 4.12469C2.445 4.06711 2.4476 4.0148 2.4476 3.94396H2.2476C2.2476 4.00942 2.24524 4.0574 2.2424 4.11483L2.44216 4.12469ZM2.43585 4.28631C2.43747 4.21975 2.43991 4.17036 2.44216 4.12469L2.2424 4.11483C2.24014 4.16071 2.23759 4.21221 2.23591 4.28144L2.43585 4.28631ZM2.44614 4.89033C2.432 4.63997 2.43219 4.43729 2.43585 4.2863L2.23591 4.28145C2.23214 4.43683 2.23196 4.64496 2.24645 4.90161L2.44614 4.89033ZM2.79421 6.91886C2.56012 6.0839 2.47441 5.39106 2.44614 4.89033L2.24645 4.90161C2.27544 5.41491 2.36316 6.12225 2.60164 6.97285L2.79421 6.91886ZM6.74338 13.2566C4.31974 10.833 3.26221 8.58808 2.79421 6.91886L2.60164 6.97285C3.07881 8.67478 4.1538 10.9499 6.60196 13.398L6.74338 13.2566ZM13.0811 17.2058C11.4117 16.7376 9.16702 15.6803 6.74338 13.2566L6.60196 13.398C9.05013 15.8462 11.325 16.921 13.0271 17.3984L13.0811 17.2058ZM15.1097 17.5539C14.6089 17.5255 13.9162 17.44 13.0811 17.2058L13.0271 17.3984C13.8779 17.6369 14.585 17.7245 15.0984 17.7535L15.1097 17.5539ZM15.7137 17.5642C15.5627 17.5678 15.3601 17.568 15.1097 17.5539L15.0984 17.7535C15.3551 17.7681 15.5632 17.7679 15.7186 17.7641L15.7137 17.5642ZM15.8757 17.5578C15.83 17.5601 15.7805 17.5625 15.7137 17.5641L15.7185 17.7641C15.788 17.7624 15.8396 17.7599 15.8856 17.7576L15.8757 17.5578ZM16.056 17.5524C15.9854 17.5524 15.9332 17.555 15.8757 17.5578L15.8856 17.7576C15.9429 17.7548 15.9908 17.7524 16.056 17.7524V17.5524ZM16.0482 17.5438C16.0402 17.546 16.0321 17.5482 16.0257 17.5501C16.0226 17.551 16.0092 17.5547 15.9974 17.5608C15.9941 17.5625 15.9851 17.5673 15.9755 17.5758C15.9702 17.5806 15.9375 17.61 15.9422 17.6602C15.9472 17.7136 15.9882 17.7361 15.9964 17.7403C16.0088 17.7467 16.0197 17.749 16.0234 17.7498C16.0372 17.7526 16.0519 17.7524 16.056 17.7524V17.5524C16.0473 17.5524 16.0537 17.5518 16.0633 17.5538C16.066 17.5543 16.0762 17.5564 16.088 17.5626C16.0956 17.5665 16.1364 17.5887 16.1414 17.6417C16.146 17.6916 16.1136 17.7207 16.1087 17.725C16.0996 17.7331 16.0912 17.7375 16.0889 17.7387C16.0807 17.7429 16.0748 17.7441 16.0824 17.7419C16.0866 17.7407 16.0925 17.739 16.1012 17.7366L16.0482 17.5438ZM16.2992 17.4503C16.1988 17.5022 16.1 17.5295 16.0482 17.5438L16.1012 17.7366C16.1542 17.7221 16.2705 17.6903 16.3911 17.6279L16.2992 17.4503ZM16.8772 17.0102C16.6822 17.2141 16.4712 17.3614 16.2992 17.4503L16.3911 17.6279C16.582 17.5292 16.811 17.3687 17.0217 17.1485L16.8772 17.0102ZM17.5632 15.013C17.6057 15.9962 17.2656 16.6042 16.8772 17.0102L17.0217 17.1485C17.4447 16.7064 17.8081 16.0464 17.763 15.0043L17.5632 15.013ZM17.3005 14.5901C17.4667 14.6967 17.5567 14.8612 17.5632 15.0129L17.763 15.0044C17.7535 14.782 17.6246 14.5603 17.4084 14.4218L17.3005 14.5901ZM15.4148 13.3829C16.2486 13.9161 16.8882 14.326 17.3005 14.5901L17.4084 14.4217C16.9961 14.1576 16.3564 13.7477 15.5226 13.2144L15.4148 13.3829ZM15.5687 13.3V13.2987H15.3687V13.3H15.5687ZM13.6596 13.3239C14.2043 13.0254 14.8921 13.0503 15.4148 13.3842L15.5225 13.2157C14.9385 12.8426 14.1726 12.8147 13.5635 13.1485L13.6596 13.3239ZM13.6308 13.3396L13.6594 13.324L13.5637 13.1484L13.535 13.164L13.6308 13.3396ZM12.9331 13.6387L13.6222 13.3437L13.5435 13.1599L12.8544 13.4549L12.9331 13.6387ZM12.9483 13.6306C12.969 13.6171 12.9896 13.6032 13.01 13.5889L12.8951 13.4252C12.8767 13.4382 12.858 13.4507 12.8392 13.463L12.9483 13.6306ZM12.9045 13.4194L12.7834 13.4858L12.8795 13.6611L13.0006 13.5947L12.9045 13.4194ZM12.8708 13.6654L12.9331 13.6387L12.8544 13.4549L12.7921 13.4815L12.8708 13.6654ZM10.9904 13.8077C11.6325 14.0762 12.3679 14.008 12.9483 13.6306L12.8392 13.463C12.3141 13.8044 11.6485 13.8661 11.0676 13.6232L10.9904 13.8077ZM8.11919 11.8808C9.16097 12.9226 10.2635 13.5037 10.9904 13.8077L11.0676 13.6232C10.3572 13.3261 9.27902 12.7578 8.26061 11.7394L8.11919 11.8808ZM6.19232 9.00958C6.4963 9.73651 7.0774 10.839 8.11919 11.8808L8.26061 11.7394C7.24219 10.721 6.67389 9.64277 6.37683 8.93242L6.19232 9.00958ZM6.36936 7.05174C5.99198 7.63214 5.92377 8.36748 6.19232 9.00958L6.37683 8.93241C6.13388 8.35152 6.19561 7.68586 6.53704 7.16076L6.36936 7.05174ZM6.36127 7.0669L6.3346 7.1292L6.51846 7.20791L6.54513 7.1456L6.36127 7.0669ZM6.51421 7.21664L6.58063 7.09552L6.40527 6.99936L6.33885 7.12047L6.51421 7.21664ZM6.41111 6.98998C6.3968 7.01036 6.38288 7.03095 6.36936 7.05174L6.53704 7.16076C6.54926 7.14196 6.56185 7.12334 6.57479 7.1049L6.41111 6.98998ZM6.65628 6.37775L6.36127 7.0669L6.54513 7.1456L6.84014 6.45646L6.65628 6.37775ZM6.67605 6.34057L6.66042 6.36922L6.83599 6.46499L6.85162 6.43634L6.67605 6.34057ZM6.61709 4.58521C6.95123 5.10749 6.9748 5.79529 6.67614 6.3404L6.85153 6.43651C7.18531 5.82732 7.15913 5.06133 6.78556 4.47742L6.61709 4.58521ZM5.40985 2.69948C5.67404 3.11177 6.0839 3.75143 6.61708 4.58519L6.78557 4.47744C6.25234 3.64361 5.84244 3.00388 5.57825 2.59158L5.40985 2.69948Z" fill="#0C4E8A"/>
</svg>
