<svg width="52" height="52" viewBox="0 0 52 52" fill="none" xmlns="http://www.w3.org/2000/svg">
<path d="M19.5 15.1667C19.5 18.7565 22.4101 21.6667 26 21.6667C29.5899 21.6667 32.5 18.7565 32.5 15.1667C32.5 11.5768 29.5899 8.66669 26 8.66669C22.4101 8.66669 19.5 11.5768 19.5 15.1667" stroke="#0C4E8A" stroke-width="3.25" stroke-linecap="round" stroke-linejoin="round"/>
<path d="M30.3333 34.6666C30.3333 38.2565 33.2434 41.1666 36.8333 41.1666C40.4231 41.1666 43.3333 38.2565 43.3333 34.6666C43.3333 31.0768 40.4231 28.1666 36.8333 28.1666C33.2434 28.1666 30.3333 31.0768 30.3333 34.6666" stroke="#0C4E8A" stroke-width="3.25" stroke-linecap="round" stroke-linejoin="round"/>
<path d="M8.66675 34.6666C8.66675 36.9889 9.90564 39.1347 11.9167 40.2958C13.9279 41.4569 16.4056 41.4569 18.4167 40.2958C20.4279 39.1347 21.6667 36.9889 21.6667 34.6666C21.6667 32.3444 20.4279 30.1986 18.4167 29.0375C16.4056 27.8763 13.9279 27.8763 11.9167 29.0375C9.90564 30.1986 8.66675 32.3444 8.66675 34.6666" stroke="#0C4E8A" stroke-width="3.25" stroke-linecap="round" stroke-linejoin="round"/>
</svg>
