<svg width="52" height="52" viewBox="0 0 52 52" fill="none" xmlns="http://www.w3.org/2000/svg">
<path d="M17.3333 15.1667C17.3333 19.9531 21.2135 23.8333 25.9999 23.8333C30.7864 23.8333 34.6666 19.9531 34.6666 15.1667C34.6666 10.3802 30.7864 6.5 25.9999 6.5C21.2135 6.5 17.3333 10.3802 17.3333 15.1667" stroke="#0C4E8A" stroke-width="3.25" stroke-linecap="round" stroke-linejoin="round"/>
<path d="M13 45.5V41.1667C13 36.3802 16.8802 32.5 21.6667 32.5H22.75" stroke="#0C4E8A" stroke-width="3.25" stroke-linecap="round" stroke-linejoin="round"/>
<path fill-rule="evenodd" clip-rule="evenodd" d="M38.5667 45.1035L33.8607 47.5692C33.5759 47.7174 33.2318 47.6924 32.9715 47.5044C32.7112 47.3165 32.579 46.9978 32.6301 46.6808L33.5292 41.457L29.7224 37.7585C29.4905 37.5344 29.4069 37.1976 29.5069 36.8911C29.607 36.5845 29.8731 36.3619 30.1926 36.3177L35.4532 35.555L37.8062 30.8035C37.9498 30.5148 38.2443 30.3323 38.5667 30.3323C38.8891 30.3323 39.1837 30.5148 39.3272 30.8035L41.6802 35.555L46.9409 36.3177C47.2593 36.3635 47.5241 36.5861 47.6239 36.8919C47.7237 37.1978 47.6412 37.5337 47.4111 37.7585L43.6042 41.457L44.5012 46.6787C44.5561 46.9963 44.4255 47.3176 44.1645 47.5068C43.9035 47.696 43.5575 47.7202 43.2727 47.5692L38.5667 45.1035V45.1035Z" stroke="#0C4E8A" stroke-width="3.25" stroke-linecap="round" stroke-linejoin="round"/>
</svg>
