<svg width="52" height="52" viewBox="0 0 52 52" fill="none" xmlns="http://www.w3.org/2000/svg">
<path d="M10.8334 15.6C10.8334 12.9675 12.9675 10.8334 15.6 10.8334H17.7667C19.0253 10.8326 20.2326 10.3342 21.125 9.44669L22.6417 7.93002C23.5364 7.0303 24.7528 6.52441 26.0217 6.52441C27.2905 6.52441 28.507 7.0303 29.4017 7.93002L30.9184 9.44669C31.811 10.335 33.02 10.8334 34.2767 10.8334H36.4434C39.0759 10.8334 41.21 12.9675 41.21 15.6V17.7667C41.21 19.0234 41.7084 20.2324 42.5967 21.125L44.1134 22.6417C45.0131 23.5364 45.519 24.7528 45.519 26.0217C45.519 27.2905 45.0131 28.507 44.1134 29.4017L42.5967 30.9184C41.7092 31.8108 41.2107 33.0181 41.21 34.2767V36.4434C41.21 39.0759 39.0759 41.21 36.4434 41.21H34.2767C33.0181 41.2107 31.8108 41.7092 30.9184 42.5967L29.4017 44.1134C28.507 45.0131 27.2905 45.519 26.0217 45.519C24.7528 45.519 23.5364 45.0131 22.6417 44.1134L21.125 42.5967C20.2326 41.7092 19.0253 41.2107 17.7667 41.21H15.6C12.9675 41.21 10.8334 39.0759 10.8334 36.4434V34.2767C10.8326 33.0181 10.3342 31.8108 9.44669 30.9184L7.93002 29.4017C7.0303 28.507 6.52441 27.2905 6.52441 26.0217C6.52441 24.7528 7.0303 23.5364 7.93002 22.6417L9.44669 21.125C10.3342 20.2326 10.8326 19.0253 10.8334 17.7667V15.6" stroke="#0C4E8A" stroke-width="3.25" stroke-linecap="round" stroke-linejoin="round"/>
<path d="M19.5 26L23.8333 30.3334L32.5 21.6667" stroke="#0C4E8A" stroke-width="3.25" stroke-linecap="round" stroke-linejoin="round"/>
</svg>
