<svg width="18" height="19" viewBox="0 0 18 19" fill="none" xmlns="http://www.w3.org/2000/svg">
<path fill-rule="evenodd" clip-rule="evenodd" d="M9.03768 17.9312C13.9791 17.9291 17.998 13.9092 18 8.96887C18.0009 6.57418 17.0696 4.32245 15.3775 2.62846C13.6854 0.934388 11.4351 0.00103475 9.0376 0C4.09762 0 0.0771069 4.0203 0.0751408 8.9618C0.0744682 10.5414 0.487165 12.0832 1.27147 13.4424L0 18.0866L4.75108 16.8403C6.06013 17.5543 7.534 17.9306 9.03397 17.9312H9.03768ZM4.97121 15.2178L2.15185 15.9573L2.90438 13.2085L2.72727 12.9266C1.98159 11.7406 1.58776 10.3699 1.58834 8.96232C1.58997 4.85518 4.93168 1.51377 9.04061 1.51377C11.0303 1.51446 12.9006 2.29027 14.307 3.69832C15.7134 5.10637 16.4875 6.97791 16.4867 8.96835C16.4851 13.0758 13.1434 16.4175 9.03768 16.4175H9.03466C7.69797 16.417 6.38694 16.0579 5.24323 15.3792L4.97121 15.2178ZM13.2462 10.8985C13.4023 10.9739 13.5078 11.0249 13.5529 11.1001C13.6088 11.1935 13.6088 11.6418 13.4223 12.165C13.2356 12.6881 12.341 13.1655 11.9107 13.2298C11.5249 13.2875 11.0367 13.3115 10.5002 13.141C10.175 13.0378 9.75787 12.9001 9.22359 12.6693C7.1242 11.7628 5.70545 9.72806 5.43731 9.34349C5.41853 9.31655 5.40539 9.29771 5.39806 9.28792L5.39625 9.28551C5.27774 9.12739 4.48366 8.06789 4.48366 6.97135C4.48366 5.93983 4.99036 5.39916 5.22359 5.15029C5.23957 5.13323 5.25427 5.11755 5.26743 5.10318C5.47269 4.87898 5.71532 4.82293 5.8646 4.82293C6.01387 4.82293 6.16333 4.82431 6.2938 4.83086C6.3099 4.83167 6.32664 4.83157 6.34396 4.83147C6.47446 4.83071 6.63715 4.82975 6.79765 5.21528C6.85939 5.36364 6.94974 5.58359 7.04503 5.81557C7.23772 6.2847 7.45064 6.80304 7.48809 6.87805C7.54409 6.99015 7.5814 7.12087 7.50676 7.2704C7.49556 7.29281 7.4852 7.31397 7.47529 7.33419C7.41923 7.44865 7.37799 7.53284 7.28283 7.64395C7.24542 7.68763 7.20674 7.73473 7.16807 7.78182C7.09103 7.87565 7.014 7.96946 6.94691 8.03629C6.83481 8.14796 6.7181 8.26911 6.84873 8.49331C6.97936 8.71751 7.42879 9.45081 8.09452 10.0446C8.81015 10.6829 9.43212 10.9527 9.74739 11.0895C9.80896 11.1162 9.85883 11.1378 9.89541 11.1561C10.1193 11.2683 10.2499 11.2495 10.3805 11.1001C10.5112 10.9506 10.9403 10.4462 11.0896 10.222C11.2389 9.9979 11.3882 10.0352 11.5935 10.1099C11.7988 10.1847 12.8998 10.7264 13.1237 10.8385C13.1674 10.8604 13.2083 10.8801 13.2462 10.8985Z" fill="#0C4E8A"/>
</svg>
