<svg width="52" height="52" viewBox="0 0 52 52" fill="none" xmlns="http://www.w3.org/2000/svg">
<path d="M6.5 26C6.5 32.9667 10.2167 39.4042 16.25 42.8875C22.2833 46.3708 29.7167 46.3708 35.75 42.8875C41.7833 39.4042 45.5 32.9667 45.5 26C45.5 19.0333 41.7833 12.5958 35.75 9.1125C29.7167 5.62917 22.2833 5.62917 16.25 9.1125C10.2167 12.5958 6.5 19.0333 6.5 26" stroke="#0C4E8A" stroke-width="3.25" stroke-linecap="round" stroke-linejoin="round"/>
<path d="M32.0667 19.4999C31.2669 18.1126 29.7671 17.2794 28.1667 17.3333H23.8333C21.4401 17.3333 19.5 19.2734 19.5 21.6666C19.5 24.0598 21.4401 25.9999 23.8333 25.9999H28.1667C30.5599 25.9999 32.5 27.94 32.5 30.3333C32.5 32.7265 30.5599 34.6666 28.1667 34.6666H23.8333C22.2329 34.7205 20.7331 33.8873 19.9333 32.4999" stroke="#0C4E8A" stroke-width="3.25" stroke-linecap="round" stroke-linejoin="round"/>
<path d="M26.0001 15.1667V36.8334" stroke="#0C4E8A" stroke-width="3.25" stroke-linecap="round" stroke-linejoin="round"/>
</svg>
