<svg width="52" height="52" viewBox="0 0 52 52" fill="none" xmlns="http://www.w3.org/2000/svg">
<path d="M15.1667 23.8334V41.1667C15.1667 42.3633 14.1966 43.3334 13 43.3334H8.66667C7.47005 43.3334 6.5 42.3633 6.5 41.1667V26C6.5 24.8034 7.47005 23.8334 8.66667 23.8334H15.1667C19.9531 23.8334 23.8333 19.9532 23.8333 15.1667V13C23.8333 10.6068 25.7734 8.66669 28.1667 8.66669C30.5599 8.66669 32.5 10.6068 32.5 13V23.8334H39C41.3932 23.8334 43.3333 25.7735 43.3333 28.1667L41.1667 39C40.5266 41.7306 38.7599 43.4973 36.8333 43.3334H21.6667C18.0768 43.3334 15.1667 40.4232 15.1667 36.8334" stroke="#0C4E8A" stroke-width="3.25" stroke-linecap="round" stroke-linejoin="round"/>
</svg>
